<svg xmlns="http://www.w3.org/2000/svg" xml:space="preserve" id="svg154" width="1729.4" height="486.3" x="0" y="0" version="1.0"><style id="style1" type="text/css">.st0{fill:#707070}</style><g id="Cubase_Family" transform="translate(-977 -7.1)"><g id="g7"><g id="g6"><path id="path1" d="M1710.4 356.1c0 50.9-16.4 104.2-90.1 104.2-81.9 0-87.8-65.5-87.8-98.3V154.8c0-49.2 7.6-117 92.5-117 68.5 0 85.4 45.1 85.4 101.2v52.7H1656v-63.8c0-17-2.3-42.7-33.9-42.7-27.5 0-34.5 21.1-34.5 45.1v235.3c0 38 8.8 47.4 33.4 47.4 31.6 0 34.5-24 34.5-48.6v-80.2h55v71.9z" class="st0"/><path id="path2" d="M1805.2 41.8v326.6c0 37.5 11.1 48 32.8 48 31 0 33.4-24 33.4-58.5v-316h53.8V355c0 77.8-32.8 106.5-89 106.5-63.8 0-84.3-41.6-84.3-97.1V41.8Z" class="st0"/><path id="path3" d="M2070.3 41.8c57.4 0 62.6 22.2 62.6 82.5v51.5c0 31-1.8 57.4-45.1 60.9 36.9 2.9 45.1 18.1 45.1 56.8v74.9c0 62.6-5.9 86.6-73.7 86.6h-86.6V41.8Zm-45.1 173.3h24c24.6 0 30.4-7 30.4-43.9v-41c0-24.6-2.9-39.2-26.9-39.2h-27.5zm0 189h28.1c26.3 0 27.5-3.5 27.5-39.2v-65.5c0-24.6-2.9-39.2-26.9-39.2h-28.7z" class="st0"/><path id="path4" d="m2305.5 455-10.5-76.1h-62l-9.4 76.1h-53.3l58.5-413.2h66.1l63.8 413.2zm-43.9-341.2-22.8 214.8h49.2z" class="st0"/><path id="path5" d="M2431.3 304v75.5c0 26.3 7 39.8 28.1 39.8 25.8 0 26.3-29.8 26.3-51.5 0-48-25.2-78.4-45.7-109.4l-22.2-33.9c-16.4-25.2-33.4-55-33.4-105.3 0-43.3 22.8-85.4 83.7-85.4 60.3 0 69.6 38.6 69.6 70.8v73.2H2488V107c0-11.1-1.8-30.4-21.7-30.4-26.3 0-26.9 22.8-26.9 42.1 0 42.1 17 67.3 36.3 96L2505 258c25.2 36.9 36.3 70.2 36.3 101.8 0 24.6-1.2 103-81.9 103-33.4 0-50.9-14-60.3-24.6-17-19.9-18.1-41.6-18.1-65.5V304Z" class="st0"/><path id="path6" d="M2570 455V41.8h136.4v51.5H2625v121.1h72.6V266h-72v136.9h80.8V455Z" class="st0"/></g><path id="path7" d="m1220.1 7.1 80.2 80.2c-82.2 5.6-147.1 74.1-147.1 157.7 0 87.1 70.3 157.7 157.3 158.1l-90.3 90.3L977 250.3Zm24 238c0-37.1 30.1-67.2 67.2-67.2s67.2 30.1 67.2 67.2-30.1 67.2-67.2 67.2c-37.2-.1-67.2-30.1-67.2-67.2" style="fill-rule:evenodd;clip-rule:evenodd;fill:#c90526"/></g></g></svg>