<svg xmlns="http://www.w3.org/2000/svg" width="1493.43" height="252.636" fill="none"><path fill="#FFF" d="M910.668.61q36.41 0 60.938 24.309 24.527 24.31 24.527 59.848 0 35.211-24.527 59.739-24.42 24.528-59.63 24.527-35.647 0-60.175-24.418-24.528-24.42-24.528-59.085 0-23.11 11.119-42.842 11.228-19.731 30.524-30.85Q888.211.608 910.668.608m.763 15.697q-17.77 0-33.685 9.266-15.917 9.266-24.855 24.964t-8.939 34.993q0 28.561 19.731 48.292 19.84 19.623 47.748 19.623 18.64 0 34.448-9.048 15.915-9.048 24.746-24.746 8.939-15.698 8.939-34.884 0-19.077-8.939-34.448-8.83-15.48-24.964-24.746t-34.23-9.266M782.495 4.643h16.025V165h-16.025zM619.766 165V4.643h33.248q35.975 0 52.217 5.777 23.33 8.176 36.411 28.344 13.19 20.167 13.19 48.074 0 24.092-10.465 42.406-10.356 18.314-27.035 27.035Q700.762 165 670.783 165zm15.37-15.153h18.532q33.249 0 46.113-4.142 18.096-5.887 28.452-21.149 10.356-15.37 10.356-37.5 0-23.22-11.228-39.68T696.074 24.81q-15.043-4.579-49.6-4.579h-11.338zM475.132 4.643h16.025v96.803q0 17.224.654 21.475 1.199 9.484 5.56 15.916 4.36 6.322 13.408 10.683 9.048 4.252 18.205 4.252 7.959 0 15.262-3.38t12.209-9.375q4.906-5.996 7.195-14.498 1.635-6.105 1.635-25.073V4.643h16.025v96.803q0 21.475-4.251 34.775-4.143 13.19-16.788 23.001-12.537 9.811-30.415 9.811-19.404 0-33.249-9.266-13.844-9.266-18.532-24.527-2.943-9.375-2.943-33.794zM364.728 20.231V4.643h87.974V20.23h-35.757V165h-16.351V20.231Zm-110.73 114.9 13.626-8.176q14.391 26.49 33.249 26.49 8.067 0 15.153-3.707 7.086-3.815 10.792-10.138 3.707-6.323 3.707-13.408 0-8.067-5.451-15.807-7.523-10.683-27.471-25.727-20.058-15.153-24.964-21.912-8.503-11.337-8.503-24.528 0-10.464 5.015-19.077 5.014-8.612 14.062-13.517Q292.37.609 303.054.609q11.337 0 21.148 5.669 9.92 5.56 20.93 20.603l-13.081 9.92q-9.048-11.991-15.48-15.807-6.323-3.815-13.844-3.815-9.703 0-15.916 5.887-6.105 5.886-6.105 14.498 0 5.233 2.18 10.138t7.958 10.684q3.162 3.052 20.713 16.025 20.82 15.37 28.561 27.362t7.74 24.092q0 17.441-13.3 30.305-13.19 12.863-32.159 12.863-14.607 0-26.49-7.739-11.882-7.85-21.911-26.163M107.755 4.643h16.134V149.52h61.592V165h-77.726zm-107.242 0h80.343v15.806H16.429v50.146h64.427v15.807H16.429V165H.513Z" style="fill:#33444e;fill-opacity:1" transform="matrix(1.5 0 0 1.5 -.77 -.914)"/></svg>